<?xml version="1.0" standalone="no"?>
<!DOCTYPE svg PUBLIC "-//W3C//DTD SVG 20010904//EN"
 "http://www.w3.org/TR/2001/REC-SVG-20010904/DTD/svg10.dtd">
<svg version="1.0" xmlns="http://www.w3.org/2000/svg"
 width="512.000000pt" height="512.000000pt" viewBox="0 0 512.000000 512.000000"
 preserveAspectRatio="xMidYMid meet">
<metadata>
Created by potrace 1.11, written by Peter Selinger 2001-2013
</metadata>
<g transform="translate(0.000000,512.000000) scale(0.100000,-0.100000)"
fill="#000000" stroke="none">
<path d="M3146 5095 l-26 -24 0 -355 c0 -198 4 -366 9 -379 17 -43 80 -55 115
-22 l26 24 0 364 c0 333 -2 367 -17 386 -28 33 -75 36 -107 6z"/>
<path d="M2578 4654 c-49 -25 -45 -57 22 -221 90 -219 85 -211 122 -221 67
-18 113 33 90 102 -23 70 -123 302 -139 324 -21 29 -59 35 -95 16z"/>
<path d="M3739 4656 c-18 -9 -42 -53 -96 -181 -39 -94 -72 -181 -72 -195 -1
-84 117 -99 149 -19 7 19 21 52 30 74 56 128 100 244 100 262 0 49 -63 83
-111 59z"/>
<path d="M1853 4568 c-27 -13 -48 -70 -35 -95 21 -37 506 -514 529 -519 52
-13 102 37 90 88 -4 17 -456 481 -511 526 -11 9 -54 9 -73 0z"/>
<path d="M4475 4570 c-11 -4 -134 -122 -273 -262 -242 -244 -252 -255 -248
-288 6 -56 59 -85 106 -60 33 18 501 492 511 517 15 39 0 73 -37 89 -18 8 -35
14 -36 13 -2 0 -12 -4 -23 -9z"/>
<path d="M3072 4024 c-175 -30 -323 -101 -444 -213 -177 -164 -272 -380 -271
-621 0 -298 166 -582 428 -728 78 -43 206 -88 288 -100 29 -4 97 -6 152 -5
381 7 715 287 796 668 20 96 16 275 -10 375 -61 241 -231 447 -454 553 -147
70 -334 97 -485 71z"/>
<path d="M1763 3838 c-31 -15 -46 -58 -34 -92 12 -29 40 -44 247 -130 62 -25
123 -46 137 -46 77 0 96 109 24 143 -74 35 -328 137 -340 136 -6 0 -22 -5 -34
-11z"/>
<path d="M4540 3834 c-19 -9 -91 -38 -160 -66 -122 -49 -167 -78 -170 -108 -9
-68 58 -114 118 -80 9 5 69 30 132 55 163 66 178 73 196 100 21 32 11 78 -21
99 -30 20 -50 20 -95 0z"/>
<path d="M1303 3252 c-13 -9 -25 -31 -29 -49 -5 -26 -1 -37 19 -57 15 -15 38
-26 54 -27 152 -4 685 0 702 6 30 9 55 68 41 94 -28 53 -15 51 -403 51 -328 0
-364 -2 -384 -18z"/>
<path d="M4326 3249 c-49 -38 -23 -128 38 -130 12 0 176 -1 365 -1 l345 0 23
26 c30 35 29 71 -2 101 l-24 25 -359 0 c-348 0 -360 -1 -386 -21z"/>
<path d="M4233 2798 c-12 -13 -23 -30 -24 -38 -5 -26 10 -65 30 -77 37 -23
339 -143 359 -143 29 0 61 31 68 65 6 33 -25 85 -52 85 -8 0 -22 5 -32 10 -41
24 -286 120 -307 120 -12 0 -31 -10 -42 -22z"/>
<path d="M1635 2683 c-188 -25 -386 -124 -525 -265 -165 -165 -255 -368 -267
-601 -7 -127 -10 -131 -113 -142 -76 -8 -216 -52 -286 -90 -370 -204 -533
-630 -394 -1029 78 -225 281 -424 517 -507 143 -50 68 -49 2063 -46 l1865 2
70 25 c114 41 204 97 280 175 128 130 185 260 192 435 6 133 -13 225 -67 336
-108 217 -343 368 -582 373 -35 1 -37 3 -58 59 -80 213 -263 375 -483 427
-128 30 -307 12 -430 -44 -88 -40 -90 -40 -186 57 -93 94 -153 130 -263 158
-59 15 -166 15 -234 0 -24 -5 -84 21 -84 38 0 21 -98 211 -134 261 -138 191
-350 326 -584 371 -68 13 -224 17 -297 7z"/>
<path d="M4000 2433 c-41 -17 -60 -71 -37 -106 8 -12 125 -132 259 -266 174
-173 253 -246 272 -248 54 -7 102 58 78 104 -11 19 -488 498 -513 514 -16 10
-36 10 -59 2z"/>
</g>
</svg>
